<svg xmlns="http://www.w3.org/2000/svg" viewBox="0 0 360 124" width="360" height="124">
    <path fill="#EA4335" d="M153.68 64.22c0 17.02-13.33 29.57-29.68 29.57S94.32 81.25 94.32 64.22c0-17.14 13.33-29.57 29.68-29.57 16.35.01 29.68 12.44 29.68 29.57zm-12.99 0c0-10.64-7.73-17.92-16.69-17.92s-16.69 7.28-16.69 17.92c0 10.53 7.73 17.92 16.69 17.92s16.69-7.39 16.69-17.92z"/>
    <path fill="#FBBC05" d="M217.68 64.22c0 17.02-13.33 29.57-29.68 29.57s-29.68-12.54-29.68-29.57c0-17.14 13.33-29.57 29.68-29.57 16.35.01 29.68 12.44 29.68 29.57zm-12.99 0c0-10.64-7.73-17.92-16.69-17.92s-16.69 7.28-16.69 17.92c0 10.53 7.73 17.92 16.69 17.92s16.69-7.39 16.69-17.92z"/>
    <path fill="#4285F4" d="M279 36.45v53.09c0 21.84-12.88 30.8-28.11 30.8-14.34 0-22.96-9.63-26.21-17.47l11.31-4.7c2.02 4.82 6.94 10.53 14.9 10.53 9.74 0 15.79-6.05 15.79-17.36v-4.26h-.45c-2.91 3.58-8.51 6.72-15.57 6.72-14.78 0-28.34-12.88-28.34-29.46 0-16.69 13.55-29.68 28.34-29.68 7.06 0 12.66 3.14 15.57 6.61h.45v-4.82H279zm-11.42 27.89c0-10.42-6.94-18.03-15.79-18.03-8.96 0-16.46 7.62-16.46 18.03 0 10.3 7.5 17.81 16.46 17.81 8.84-.01 15.79-7.51 15.79-17.81z"/>
    <path fill="#34A853" d="M300.75 5.09V92H288V5.09h12.75z"/>
    <path fill="#EA4335" d="M349.36 73.97l10.08 6.72c-3.25 4.82-11.09 13.1-24.64 13.1-16.8 0-29-12.99-29-29.57 0-17.58 12.31-29.57 27.54-29.57 15.34 0 22.85 12.21 25.31 18.82l1.34 3.36-39.54 16.35c3.02 5.94 7.73 8.96 14.34 8.96 6.62 0 11.21-3.24 14.57-8.17zm-31.02-10.64l26.43-10.98c-1.46-3.7-5.82-6.27-10.98-6.27-6.61 0-15.79 5.82-15.45 17.25z"/>
    <path fill="#4285F4" d="M89.36 43.45c.45 2.79.64 5.55.64 8.12 0 9.41-2.58 21.06-10.86 29.34-8.06 8.4-18.37 12.88-32.03 12.88C21.79 93.79.6 73.18.6 47.87S21.79 1.95 47.1 1.95c14 0 23.97 5.49 31.47 12.66l-8.85 8.85c-5.38-5.04-12.66-8.96-22.62-8.96-18.48 0-32.84 14.9-32.84 33.38 0 18.48 14.36 33.38 32.84 33.38 11.98 0 18.82-4.82 23.18-9.18 3.58-3.58 6.02-9.01 6.91-16.06H47.1V43.46l42.26-.01z"/>
    <path fill="none" d="M0 0h360v124H0z"/>
</svg>
